<mxfile host="65bd71144e" scale="3" border="10">
    <diagram id="UC0R1C5_P8OQYhccCtvy" name="Page-1">
        <mxGraphModel dx="684" dy="645" grid="1" gridSize="10" guides="1" tooltips="1" connect="1" arrows="1" fold="1" page="1" pageScale="1" pageWidth="827" pageHeight="583" background="#ffffff" math="1" shadow="0">
            <root>
                <mxCell id="0"/>
                <mxCell id="1" parent="0"/>
                <mxCell id="29" value="We want to draw \(N\) words from \(k\) bags and use those words to form a document \(d\)." style="text;html=1;strokeColor=none;fillColor=none;align=left;verticalAlign=middle;whiteSpace=wrap;rounded=0;fontSize=17;fontColor=#1A1A1A;" parent="1" vertex="1">
                    <mxGeometry x="104" y="201" width="630" height="30" as="geometry"/>
                </mxCell>
                <mxCell id="31" value="However, we do not know how words are distributed within the topic and across the topic&amp;nbsp;" style="text;html=1;strokeColor=none;fillColor=none;align=left;verticalAlign=middle;whiteSpace=wrap;rounded=1;fontColor=#000000;fontStyle=0;fontSize=15;glass=0;shadow=0;dashed=1;dashPattern=12 12;fillStyle=auto;opacity=70;" vertex="1" parent="1">
                    <mxGeometry x="116" y="235" width="601" height="30" as="geometry"/>
                </mxCell>
                <mxCell id="34" value="" style="endArrow=none;html=1;fontSize=15;fontColor=#000000;exitX=0.016;exitY=1.1;exitDx=0;exitDy=0;exitPerimeter=0;strokeColor=#000000;dashed=1;dashPattern=8 8;" edge="1" parent="1">
                    <mxGeometry width="50" height="50" relative="1" as="geometry">
                        <mxPoint x="106.08000000000004" y="233" as="sourcePoint"/>
                        <mxPoint x="736" y="234" as="targetPoint"/>
                    </mxGeometry>
                </mxCell>
                <mxCell id="35" value="- let \(x = (x_1, \cdots, x_k) \) number of words from each topic&lt;br&gt;&lt;br&gt;- the probability of getting \(x\) is given by the multinomial distribution" style="text;html=1;strokeColor=none;fillColor=none;align=left;verticalAlign=middle;whiteSpace=wrap;rounded=0;shadow=0;glass=0;dashed=1;dashPattern=12 12;sketch=0;fillStyle=auto;fontSize=15;fontColor=#000000;opacity=70;" vertex="1" parent="1">
                    <mxGeometry x="104" y="50" width="476" height="30" as="geometry"/>
                </mxCell>
                <mxCell id="36" value="$$f(x |N, p) = \frac{N!}{\prod_{i=1}^k x_i !} \prod_{i=1}^k p_i^{x_i}$$" style="text;html=1;strokeColor=none;fillColor=none;align=center;verticalAlign=middle;whiteSpace=wrap;rounded=0;shadow=0;glass=0;dashed=1;dashPattern=12 12;sketch=0;fillStyle=auto;fontSize=15;fontColor=#000000;opacity=70;" vertex="1" parent="1">
                    <mxGeometry x="243" y="113" width="317" height="30" as="geometry"/>
                </mxCell>
                <mxCell id="37" value="where \( x_1 + \cdots + x_k = N; p_1 + \cdots + p_k = 1\)" style="text;html=1;strokeColor=none;fillColor=none;align=center;verticalAlign=middle;whiteSpace=wrap;rounded=0;shadow=0;glass=0;dashed=1;dashPattern=12 12;sketch=0;fillStyle=auto;fontSize=15;fontColor=#000000;opacity=70;" vertex="1" parent="1">
                    <mxGeometry x="90" y="160" width="357" height="30" as="geometry"/>
                </mxCell>
                <mxCell id="40" style="edgeStyle=isometricEdgeStyle;html=1;exitX=0;exitY=0.75;exitDx=0;exitDy=0;strokeColor=#000000;fontSize=12;fontColor=#000000;rounded=1;elbow=vertical;" edge="1" parent="1" source="39">
                    <mxGeometry relative="1" as="geometry">
                        <mxPoint x="507" y="136" as="targetPoint"/>
                    </mxGeometry>
                </mxCell>
                <mxCell id="39" value="" style="shape=image;imageAspect=0;aspect=fixed;verticalLabelPosition=bottom;verticalAlign=top;rounded=1;shadow=0;glass=0;dashed=1;dashPattern=12 12;sketch=0;fillStyle=auto;strokeColor=#1A1A1A;fontSize=12;fontColor=#000000;fillColor=none;opacity=70;image=data:image/png,iVBORw0KGgoAAAANSUhEUgAAAvQAAAKpCAMAAADkEkgNAAAABGdBTUEAALGPC/xhBQAAAAFzUkdCAK7OHOkAAAAJdnBBZwAABywAAAlIAJdquEgAAAERUExURf///93d3ZmZmc3Nze/v70RERBAQEAAAAHZ2dru7u2ZmZjIyMiIiIqurq4mJiVRUVA4ODiAgIHBwcAgICBISElhYWDAwMBQUFDY2NkZGRl5eXj4+PrGxsX5+figoKBoaGq+vr1ZWVhYWFm5ubiwsLEpKSqOjo4+Pjzg4OM/PzwoKCoWFhWhoaBgYGE5OTt/f38HBwTo6Or+/v5eXl2RkZBwcHFJSUnx8fB4eHpOTkwwMDCQkJFpaWp+fnzw8PHp6elxcXCYmJmxsbI2NjTQ0NEhISExMTFBQUAYGBkBAQAQEBKWlpXJycioqKoODg7Ozsy4uLmpqaoGBgWJiYkJCQmBgYIuLi5WVlZubmwICAqenp0ecD6UAACAASURBVHgB7X2HlqS6ki1GIOEzy3X56uoyXa/avNU17fv4692aO3feTK/7/z/yQgKRkAkkHmVm0OcUpAAptAmEFIrY0jTcEAFEABFABBABRAARQAQQAUQAEUAEEAFEABFABBABRAARQAQQAUQAEUAEEAFEABFABBABRAARQAQQAUQAEUAEEAFEABFABBABRAARQAQQAUQAEUAEEAFEABFABBABRAARQAQQAUQAEUAEEAFEABFABBABRAARQAQQAUQAEUAEEAFEABFABBABRAARQAQQAURADQR0x1FDEJQCERgJAUYptc2RCsNiEAEFEAgo03TPJgqIgiIgAuMg4PlQjkONcUrDUhABBRCAhh4221VAFBQBERgFAZOGvBzLypYWiLRsCh4jAtuDgEOF6San9PrMDranhlgTRGAJgSKl9+jsGQ5sl4DCn9uDgLPavQlmbri/tz1VxJogAksIrA5kn82IdvRCX7oOfyICW4OA50FVzIzJcm8fhrEOPdyaGmJFEIElBAzQd5KZnCL2nF8RHaBvwhJS+HN7EFhyQziMzTk65V8A3BCB7URAN5yFrca0E4s9m+Ek7XY+b6zVMgIeTUawZHaweBWWr8LfiMD2IGA8Cq8EXiEDzZbb81yxJuUIkCswV8rNmqHZUmKB++1FYG8/05F3aM4hZ3trjTXbZQT0F0fZ6rtotszCgcdbicBdbK6UddNn3NceN0RgixFwDqJ87djsIp+AvxCBLUPAl+ZKWS8yxzBCiQXutxIBY5aaK2X9gv3X8hD3iMD2IQBONwtzpawemi0lErjfRgRy5kpZQRNdcCQUuN8+BPRZoVUezZbb96ixRhKB47y5UiaT2TN5iHtEYLsQcA5KSEAYuuBs15PG2qQI8BjB4g3NlsW4YOqmI3Bhr5grZZUwclAigfutQiCJESyuk4X0rsXAYOpGI/B6v4LdCSMHN/rZovDFCJiPheZKeTFDwjMJBe63BgGPVvLTY+Tg1jxprIhEICgfxcaXIOGZhAr324JAublS1hAJzyQSuN8OBASlWXVV0GxZjQ+e3TAEKs2Vsi5IeCaRwP02IJBQmlVXRae/Vl+AZxGBzUHAOag0V8qKIOGZRAL3m49ASmlWXRViY+RgNUJ4dmMQKIgRLJYdCc+KccHUjUMgR2lWLT1GDlbjg2c3BYHCGMFi4ZHwrBgXTN0wBHQ7R2lWLT1GDlbjg2c3AwGrOEawWHh99qL4BKYiApuDQGmMYHEVmI2EZ8XIYOrmIOA3I+NGwrPNebQoaQkCtc2V8n4kPJNI4H5DESikNKuuC5otq/HBs6oj8Dq7AkM9YZHwrB5OeJWiCJRQmlVL6x5UBNNW34pnEYHJEVgTI1gsHxKeFeOCqRuBQENzpawTRg5KJHC/eQisjxEsrhMSnhXjgqnqI1BBaVYtPEYOVuODZ5VFoFaMYLH0SHhWjAumqo7AIW1thUHCM9UfLspXiIBp14oRLLxXY3ZmheXiSzAVEVAOgZoxgsVyk9lVGa138Q2YighMj8BaSrNqETFysBofPKsgAqStuVLWBQnPJBK43xQEalCaVVcFzZbV+OBZ5RDQX8y7yoSEZ10RxPvHRaAWpVm1SDr1qy/As4iASgg4B1F3cZDwrDuGmMN4CHQyV0oxMXJQIoH7DUCgcYxgcZ3QbFmMC6YqiAA5KF0wtpm0GDnYDC+8ejoEGlCaVQuJhGfV+OBZZRBoFSNYLD0SnhXjgqmqIdCI0qxaeH32rPoCPIsIqIBAyxjBYtGR8KwYF0xVC4GGlGZrhMfIwTUA4WkFELiYsT6lQMKzPtHEvAZBoAWlWbUcaLasxgfPTo/A6/3WMYLFwiPhWTEumKoMAj2aK2Wd3FnPr5HMGPeIQC8ItKI0qy4ZCc+q8cGzEyMQHLj9S4CEZ/1jijn2h0DXGMFiSdBsWYwLpqqAwN5+r+ZKWSWMHJRI4F45BDpQmlXXxbKd6gvwLCIwEQI9xAgWS46EZ8W4YOrkCHSiNKuWHiMHq/HBs1Mh0EuMYLHwSHhWjAumToyAYQ8yio1rhZGDEz9dLL4IAXLVU4xgUeaahoRnxbhg6pQI9BYjWFwJh94Vn8BURGAqBPQXR8MWjYRnw+KLuTdHYDBzpRQFCc8kErhXBIFeKM2q64Jmy2p88OzYCPhUH7pIJDwbGmHMvxECPVGaVZeJZstqfPDsqAj0HiNYLD1GDhbjgqlTIDCwuVJWyaHH8hD3iMC0CAwQI1hcISQ8K8YFU8dHoEdKs2rhMXKwGh88OxoCvVKaVUuNhGfV+ODZsRB4NhvcXJlWBSMHUyjwYEIELob0rlyuFxKeLSOCvydAYLAYweK6WDOz+ASmIgKjIdA7pVm15Eh4Vo0Pnh0BAXNmjVBKpghmI+FZBg48nACBASjNqmuBZstqfPDs4AgEY45i49og4dngTxULqERgGEqzyiI1NFtW44Nnh0Vgbz8ctoCi3JHwrAgVTBsJgZHNlbJW1gwJzyQWuB8bgcFjBIsrhIRnxbhg6ggIOPbI5kpZJ4wclEjgfmwEBqQ0q64KEp5V44NnB0NglBjBYukxcrAYF0wdGIGBKc2qpUfCs2p88OwwCIwUI1gsvEMnGk4Ui4Opu4HA4JRm1TAi4Vk1Pnh2CARGixEsFl6f+cUnMBURGAqBESjNqkVHs2U1Pni2JQKm4ySRgLqzNAnqjxgjWCj9KuEZSEviS1ekLcwBExGBFQRIRGETKy0wOLCzIUsTmiulnEtmS2JxGQ1+dkVaeQvuEYE1CLg01IjLtT6AP7pnJ+0o3DYSpVm1gHnCMxZLC2/mirTV2eBZRGCBABWrf3uepnl80OhQ0YyK85OaK6WEDgXR0s3nNkydv6Ir0qbX4AEisAaBuGdj2ZoWH9niJeA3jUZpVi1hjvDM52+AUPplaaszwbOIwDICxI40E3oOsFnpfJBHl4a1y3eN8zsXOWhQpjuera9KO44wWMrWIGB6MH51Yh1Pld6x7wwxvtU0I+nyMLlPRruW3MdImMn7Ysrb5F7eJvfyNrmvvv3k8WKBtBh2w8u4LO3iCjxCBNYjAMNYH9RvWY1sesoSLWaJ9lpyn3wC5KeAxoU4ci9vk3t5m9w3vH22GFzDiNsJrIJXdH018QpEIEUgsG3Rr3Hy3ZsL+0TTk6ZYT+z4ptwnFh5pMU+UmMi9vE3u5W1y3/D2L/uHibRm3JOH4eyStGlt8AARWI9AQN1EB3NDw4liBIvl5U272OTXCD4pOWmLb8NURKAYAT+S6dxsCQPEuON9uK8I21LECAiVmC0Tgyo3V+aklVXAPSJQAwGHRoxvoOoG6DtJJqfMqWIEV0QOPOgUpYRnnu1ohM9Q5aRduQkTEIEKBALuhAAbH3NmJvYnixEsFjU1W5oeF1YMiDPSFt+EqYhADQR0IxmappRmjiKdnAXhmWMEyXg4lbZGzfASRGAdApLSjDu4qLHNYUIKN0RgOAQWlGbKaBoSng33uDFnQEC35+rhYB0kswDqiYYSbQECE1GarSIXWQs/ZyQ8W8UHU3pDYPIYwbQmupw34ykYOZjigge9I6CYuVLWDwnPJBK47x2BlRhBNgFRd1GtliIHiy7BNESgDQIrlGaGr4itXjtCs2WbJ4r3rEVAiRjBYimR8KwYF0ztiIA+y4akdsysy+36wnCTZpOLHExT8QAR6IbAxJRmC+FdHtiytCHh2RIg+LMPBJyDNC68j+y65BEWNPVotuyCKN5bjMDklGbFYsnUVcIzeQb3iEBLBMJZsYOZHhWntyym/W3G/uv2N+OdiMAqAqWUZoGliudZnvBstQqYggg0Q+C1KjGC5WKnkYPll+AZRKA+AopQmkGgbsV3Bc2W9R8oXrkeAY+uWgnX3zXAFYyWTwKnkYMDlItZ7hwCCpkrJaFO0TNg9kVRMqYhAi0QkDGCpbcWGM5Lrx3wxHxBeDZgKZj1LiCwt19tlnR8RbwtAyoJz3bhsWAdB0RgLaWZA6xLamwp4Zka4qAUG4uAMjGC6xHEyMH1GOEVNRBQhtIsSPi8q2ROCc+qLsJziMAaBJSJEQzjZdQqxUWzZSU8eLIeAimlWb3Lh7yK1Bg6LAjPhpQE895qBMjBrIaqAQRFoR1TIIOEZ1Ogvl1lLijNquvFiY2V2JDwTInHsMlC6C+O6olvKsMyFiHhWb1HhleVILBB5kpZAzRbSiRw3woBZSjNggbzXxg52OpZ400JAr/SClfeMVEyvfqeDkh4NuaT2bqyVijNNqOGSHi2Gc9JSSmJ3dBrMahn3Ry8skczRT5Qg9cUC+gbgaaUZsr4ACDhWd+qsDP5NY4RrIrlGxc1jBwcF+/tKU0ZSrPmkCLhWXPM8A5AQJkYQcNrPvHFZvWtPfi0EQGJwAtVRoPEbe7hgIRn8jHivgECF3Z1jGCDrKa4FAnPpkB9w8tcGyNYUj/CFLEWIuFZyRPC5FIE2lKaRQU82qWFDHkCCc+GRHcr825srpQoKNLOgzhotpTPBPf1EFCG0qz9HC9GDtZ71HhVgkAwU2QFhsBub3pk9h4+UESgNgJrKc1q59T1QqOcu3Jt1kh4thYivCBFoG6MYHqDmgdIeKbmc1FSqrbmSlkZM1JkOIuEZ/KR4H4dAl1jBCO3/fBznWyNzmPkYCO4dvliZSjNuj8EZZydu1cFcxgUAWUozbovBAFmS0U+OoM+Mcy8KwLKxAgGtLv3DxKedVWHnbifXNWkNBsejT64dI5eKDKoHh4uLKE1Ak1jBFsXNM6NSHg2Ds4bXUptSrM1tTRsRVpYJDxb86TwtHZHm4cpFcHG2rsPFGXXPg3Nlu2x25E7laE06w9vJDzrD8vtzMlXJEaQ9PehILOG7D3b+WSxVmUIKGOu1P2oTMbG6Uh41hiyXboBnG5UmcshPY6DMXJwl5S4aV37Nlf2qLhNq5K9HgnPsmjgcQ6B1jGCuVwWP1yqyHcDIwcXDwWP8gh4PZkrZa5hP9ZPmV37PRKetcduy+9UhtKsf5zZ7KL/TDHHLUBAlRhB4vY+FkDCsy3QzyGqoAylGbH83usX7L/uPU/McOMR6Boj2CcAA4x/0WzZ5wPalrzaUpqtq78ig1kkPFv3oHbwvPloDVJrTxVvSzRbDvJ8NzrToSjNVFmGSkPCs43WzyGEDzabmLsOJGwfCc/q4LQ71yhjrvQ6MJqteVxIeLYGoB07rQylGWHDDC3488TIwR3T6urq6va8+oLtOIuEZ9vxHPupRVdKszVS6P1FhKwpqfo0Rg5W47NTZ52D4foUHEh72OzrPyskPKuP1bZfOTSlWXemsp6eAJkdDDDZ25NwmM2YCCgTIzh8pZHwbHiMN6IEZSjN9BHmCpDwbCN0cnAh+44RbC+wM/yaP2i2bP94tuhO3T7aotqsrQoSnq2FaBMvIM3GalbPMYIlkI3QipeUnE/W6a/5BPy1DQgwv0ng0UgxgnoPtNv9PBwkPOsHR6Vy0W3aZC5oLEqzZp+fARElNhKeDQjvNFm7ntsg2k4Zc2WTr1M3YJHwrBt+Ct7tUMekfDao1ooG6lCajThri5GDCuptJ5E84ID0uenPqjP3/3rf6FRafzeP6J+DhGf9PTYlcnJ4dB6zNS0Qzf0amfqmNFtTnCqnG0YOjtfzUgWgDZLDYjBa5E9Ip4bm11mkbKgYwWLQCOuPibi4hJqp+uxFzSv5ZWGdT2aD/PDSHhHQLWondhsrYnVMFCOZK2Ud9QGjomQZ9fbMbkB4xrx6meJVkyAQ+NQTjBtGqv6VcqgSI1gp5BAnGxGeOXQIETDP3hBgNo2gg0NoHavl3ggOXrVqNj5jQj3CM4djCVGGyswx1EJz9y6ybEqha6/XcGFXh9LMr9MX6/dZ1jJbEsvmYerj+Gn0W79dys2hhgld+1p2yEM6HPFAQ8zHF6Qm4Rnj3hO2IiRtDUHdmct9bmmArn0NRwRzxOkgBfF3D2q9aY5tEauOIUzBKm69SJFQc5Z8iWvovDZ0jGAx5KTWnFnxvb2m1iU8gy5OLetvr8JhZnUQ0H3qOxqx60dhTERpNgD3fB18Cq6pHTnIKBrqC/BTIQnsNlZUnyyV7Ky5Mn1YtQnPHLTepKApdMCgf0pcSq3aj0cZSrOwhp1pGKTbRA7q6JIwzMNonqsJ6g66w+02dXrzUID+QpUYQZdOpkfNCc/Ibg/+m2vmgHeYNrWpC6082G2ga19jG5jSrIYE6SWTtfTgotTYwUBaClLp8WAyBALKGBXzq9C1r2GKcw4mdf3qczXwLpizx1oTGpkiiF9nqjtzAx4Oh4BBDfA383nXvo5ReRpzpay+Kfz95a8J92R2VXsQlIgZ1JkCmbBKO1U0gwbe8UXXfn29J44RJDUHHusr0vWKFpGD1vguE11rub33uzZ0jqFzU+ODTexZ0wZuW3FrRnjmwHjJVIbWYVufSZN6RVzrCR/OpltsYNb5s8puylCasRpvaFbw/o9XzZbEcWJzUg62gHFPvmTLQty/SJjjegRMOXVCPG/pacSmBgaPir8P6aZOjGCYkysVcMyDZcIzg+s2HxblYIMfFgscQBFehclMrGPionZZFqV+xAJ4Esta71DuiQOGHU33sh3RkSjN1IZNSqfnIw9MsPzCLJ+zBBsxltoTeTvup0AATPQ+i3xozC2wWmZdb4gvtNvjNjbwOE6FGzlGMC136aCOx//SLYP8zBOeRcIiaYXaCmyDFI6ZtkMA2qUDphFHaH7WMyrygAIHIiCECTPjiTYWpVl1dfgHSIktHzmYSrUCWyKswywRf6+E7DssBHgfcAM99G94p1Nuoa1zpTdju/LCofdixrXNTDqmZvLZlgODZMhL5D7JUDbL0vWk++2ihMlKFyAlpRt/fi0x42gFrhWSVdjiSxwPOveW3XgiNy0AD3pDALwPrKXhlQnRU1zpRWufYX4is6/8ShkXYSXazb8JfEtioGUstJN8OuQ6lyxpnrfr9scUO6CBAqWmHlmGTYBDIurzzr2Z6SyKE/hnEgTAQM9JbxYbJzorUvrX/77lj1gaC1nSlHN/Nb4lSm7KfaLkhtwnQ4MebnfBuDpd6byuSencJ5v/5Jsj7Fwwmi1SeuJJjK3s2Cm+E/9OgAB07bP2v9AOHCekoePkuzf67N0EwhUV6cj3rOjkmGm6dXeQfOdA6cXbbflLsAl5LBkrS9Ke/5hyYlkFCJjZ5odbmcW2NJAdl9KsQEoVk/TZs0SsRJ0tugQbP+2knnzRdN7QKsKnlkziG+3xUZfshQYH2TdjcmmNGg6hYwi5IDyLXeEgvD4Hm5CBE4TyTfewSx8jMc1faf0oKV0oPfhfwrRVMjmlVoygUTfkpaR+/SWnkYMG9AahpxhoOdhEQYHgfCLMrkew0p9wmFMGgQBmzP388DVzFg7j0VhmPl2ZGMFYzoaLY+Ur1+uvBeEZxFwWuCGIwjwvCFwY9eoaGut7Rb9BZg6NDObFoSOVt+lGYoVPKc2cZS+dyvv7P5mzM/Wfff0cU0EWhGemwV06YEthk9lBwAKlEViB0VgvIRl9HwlDmwNW5dTMvEaGNEZw6jnFyMvMoq0RetDTTAZX1iM8IyA2GusHfSJrMpcTRKFdk/hDHUozwuq+p2sw6HqaMGmsdAVr5fr80Fi/HqMBr4ik52RdZZ42RnBAJPrIui7hGRrr+0C7dR7wRU66pEYtu7GhCjF3rsaEU/aosNUjPENj/ZTPCvoHsPJCrDC69JypEohcKRkjGKrSvddSs2UVimisr0Jn4HNiAW4eCM77pGEybVJZpjIxgpVSTnhyNXKwQBg01heAMlZSzFoJMyUQNmXVmSFcoTRj/jSDSemdPBZSpeWskO+k3fXSW+DEwlhfdRWeGwCB2DHKDIP/G0aWVadXnJorpTRunbvkxT3uWU0zSY9FFmcVpr40yflahGfSWF+cJ6YOiIDnwxhWTLUuwgAri5uY0iwrmzHNFyYrQnycDbkRKfnIwdUb4hRurMdtfAS4YwjoPHOCWl0bENCvZeAZvyZKldiC8Awmq5SqwhYLY9hg84gtkKm1vrK6E1OaVcoGPkJWze/Vmnw6n25OeEYYtiadYa+ZgenbsR0BmHflnGLFreB0o3KDZOQYqirqMfipZoRnYDUGGgqlnLUHR2jKAsADJG5iail9qblSle71lFBmy3boXfbnmmPu9+Rn49XWXI+nuyIAbAc8CzlbUpVdKaWZNfKywGaNr1JVRXo7p5eZrpYJzypK1CFA0+C8ubgNj4A0dIPOmw6rwxx9XNYFGtvvi4doKLGVrjKnz2ryz/MpEkaERUGJGm25EGC1STrohK8Ovr62ilCacUF1VYYWpYLUM1vyznykC+6/9fjjFd0RAIpKP7F2pOStlbk+m21C112R1yFPeFaGKzBgQk/NzPDGlV2J6f0g4Fke97mRxEvrMr1Q0rtyWWpl4mXrmS354KSuS/dyVfF3CwQMmwChtPvvGj0byD2NEWxR0oi3BIqY6oHvquaHMSWJNo267c+IeG5dUT5E7IMPguzaV9fv9X61fYFUn67OfBvPOvS4TrUEw4RuMB44KzjR69yE17RGIAQLg0O9WqtnmrOUs66wvNGWy3PqvaOFQvaaaK4TxE0Jz6rKZTTii5NYzAjBXK+KLbZK4s0+R4B5BfiIHL+G69NaSrOxuhWOX687NvijWbu2Yb3IQeB6ZQY8AG6uV8QQOzh0kxbA/LCmy0epQXp8+dVhuVlnKFoQnq1FKTbXr70ML+iOgF6D7SYuRS1Ks3U1X8PYtu723s7XihzkpaUc6UZNRoreRNzBjAzuT19jU4zSbI3EyszpLwjPKiXmq2GIzjw44UgCncob8OQICGyIuVIisRLVIU+MvrceawyXNDvuzPNe/brB8eg12N0CV2IES6DQxxrNlpSvXHI9wjPRG+O9encTpryVA3kYgZw15kpZqk5h2ZIhN2d5caAhC6vKu/ZKELUjeblHPfbnqzAf+VxtSrOhGyo9UsRcqbs1Qz7qmS0h5gvciwm64Ayu2LVXrFY7RnBwnLoVUIvwjMTT4vHK7N3Kw7urECB1J3kUpTSrqhs/B+tZKrHVMluG8TcSZgphc2rTRytRwU0SgtW0VmqlMYJK1zZmsVJAxFqEZ4mcAbBT6JFkWVRA+C0TQa/LlbRCabYZQJRGd4wuvjWr71Bj+eAAiDacoZ6RW+0/tijWKosRXFySO5JLxeYSd/lHLcKzBCBQebkM9S5DNlDdHVpn1gQKb0pppg8VahL4ivgum3W/kfLR1Ywc5Lw9aSybvBf3PSLg1TS5aX7NUIgeZSvJiqnigxg2tJvWJDyTE7KOKvUseQ4bmwxBU/VkR3NlPZwqr6oVOQjR+RAiDlu9pTEqC8STRQiYNf0FFKc0K6paJk1XhfGsFuGZIce71sDz2hmE8LAAgc00V8qKeMp4LdBaZoNkQjtetldWAvcjI1BKaTayHC2Lq9mFa5l7k9tqEZ6B6caLGEyUu16TvPHaagSaBlesjREsLo6wvj/QQzv1FNejILWlILUIz3QIHOThshC1jGPZAuxbJQUAqN/EYbstpZned3xzvGBKq0r3e5Pellu4ltlSTJITJ2S11oTpt2ZbmptDI4N5tQMEAQV1YgSdmgPvwR9dW3tiLcIzMtQcx+CwKFtAFHszAc9EzW/0ZlCaKYt3XrBaZsuEQTp/J/7qgICVzKmEdr1ghQ2LESxBJpArQ5ecHy25FuFZ7TnD0cTe8ILSBXZqcicebgVlutdkEDPkEwZWrfXZO3UnytdnhVdwBCBeM7Hh1Zrzq/lqlGNbsxNVnsGWnalHeLZllZ68OoZ01K611E7tGMHiepm9zSuqMobVOjq81YwcLIYTU9si4Pix42por8+hK6VZby4Apt230X995Quv0O0a/ZPCO5PEBoRnVdnguWYIcJoJP6q1Zqw65kpl6JCJdI5pBvri6lqRg4vL8agnBEgYWXWmPjaL0qwncIbOJtg/HLoIzL89Aro9b3+zcneyejba4eW2cN3M4UFuXUJdSrPWBYx6o9u1X9KXtPUIz/oqDfNphEDTGMGyzAmaLfPQ1CY8y9+Gv0ZAoKO5UkoYdKbsUoW8pi8WHTRbSt1Qbt9XjGBnPlfdq7kE8dAQ6lZPgtQiPBu6Npj/KgLkYKZM+IUy/aOa5BGraC6lzFUZVC/Jtes/NztGsOzpKfL6NCE8K6sKpveOgD7rOPPYu0R9ZGjVmIXuo5y1edSKHFybC17QLwJNKc36LX2o3BKK1KGyr59vE8Kz+rnilZ0QaBsjWFaoOmvhlEk4cnqtyMGRZdr14nqmNDNaBzkrM6UU9Tu3VZPwbNf1cMz6h7OGpHVrhGs9P0XcnqyEawRcf5r1PByoFTm4Xiy8oi8ENpvSrC8UBs7nCM2WAyPcLPvX+x1DJZoVN+7VqjgpO/UIz8YFZ3dL23BKs+oHR2xVOkwYOVj9pMY925LSbFwhW5emzEesFuFZ62rijY0Q6NtcKQsP+7V/yGw3d49mS3We3UAxgqHdVOk9VcgcB2IQqUV4po5ebLMke/v9mislVqSx/5qhiifEUFxRxv5riQ7up0RgOyjNpkSwQdm1CM8a5IeXtkNgu2IESzAwFek4YeRgyQMaN7kzpdm44rYrrTXXdrviKu5Cs2UFOKOd6ilGcDR52xWkiFu9pmHkYLsH2OtdXSnN1giju3Wt5I1HvWtKbn16YEGQ8Kz1k+nrRnI1bIwgs+oG3NmqrAnoW8OqPRKe9aW8bfNRh9LMVIWuWh+Y5TugSHjWVl17uU9/cdRLPphJAwSQ8KwBWANcuhPmSombMcwcnMy+9h4jB2tDNcSFfVGaDSFb73nqtiK2eg0Jz3p/uA0y/JUqY8prIPXGX4pmywkfYV+UZmuqEPjrVhWpa+FZU1D30/qwhhspIBKeSSRG348VIxiuNYf4viJfHGskQZDwbHRtTwpUh9KMqNLb1kYSBAnPJlL6rY4RnAjT2sUix8RqaQAAIABJREFU4VltqHq9cDspzaohIq4iU2Botqx+UAOdHSpGcCBx+8lWt5oGc/VT7mouGDm4isnwKc9mow4eRy1sePQ6l0BmB+NYijpLukUZXNijzk+GtMzbMlDldXDGFQQJz0Z/m8aOETTKdF6LVFl6j9Fxuz7euJ/a0VVMvQIVojRTZmZqZEGQ8Gzk12K3zZWKdKYxcnBcrd9uSrNqLE0vqr5grLNIeDYW0qKcYKaIuXrUWieFDR0kUr9ObDbSBHB9kbb4yoEozdYhVjqYXXfjlp5HwrMRH+xEMYLuip0mVOU1MNb5gQ7zdJDwbBhcC3Id21wpRVg1hId0ZIuJFGV5H9rTvH5IeLb8JIb6rVCM4LjzQRWATmTQQcKzimfS5ynHtvrMbjPzar0mVs/VRbNlz4CWZLcblGYllU+SB6a4qi48exYjB7NoDHY8UozgYPL3krE+zcC1QHZm7xWkYlKvCAxNabZGWHVipNYIOtppJDwbHuqJYwS9NAh1feTs8GCIEiYWBCMHB3/OU1OaLcw1jj+uU2MptI43bV8HCc9KH01PJ+5G9p/tSextzgYjB3t5usSR80C6k29Od4rSbB2WjiIzY0WEZ048cbD8/NZVaXfPGzalVMRFMTjIzf37GLiQ6kVIFXH3ArPl8txYEtCy8vxS4fEgj4BJXUJc3o0JQPV1z14giubKDFSqzE9p2grhmUNFL3Tl+WWkx8McApFYFd6CZszjRw5Nx2ljUZrlxFn9Yaqy/MKqaBOlHL1YDPBBBOLH9CzLz28i6Tah2LhnwyWNj+zUd35ic6UEz3dvaq9PIu8ZaF9/oZSBBIizXTJbRp4jWvrl5zeoDBuduUnDwLVC6NPAEa+JJV1t9Nk8aVASIgRd7pNvgSP3yejXkHt5m9zHALW/XXch5/a3i+J7uZ24X2Sd5V7WWe5lneW+a90LhT97TIrjZ0NbF0q//PzikvFvAQIQb0wti3oEOjYCyVTpb+OeItxD4/scuU9eCyb3yctgyX3yROL88HZAr2foXLpYK920jfjRLT+/goeNSVKTub0GRrPLSu98vTodtLka7UMhKtpLS6+xe9nCy71s4eVeQib3Mcr9lK5JHyDnZJaUDyMxCOEV+o5KX/udduKeoOUDcrnuzUQxgrUFn+JCpsq0MJlJIxvEszgOmFOd5ec3BT6bUiZJlB66LrmB0MiUZpsBF1mYcycWOCU847Z5sS09v4nlU7x4X1hrfOife7yjaMYmy6liBFfAivXM8CdXN3UUXkCRixyMezbZ57eCIyZkETCgVwOTUxD0aYC+k2Ry6nB/mijQrGTimNm8t+xNPxsawoBRiS0O0M0RnsVKn31+SkiqsBAu/zoKw8tiGttMYwQnb2Ght6rGJi2yk0sTk0JkIweTMezi+U0uo/ICmIakAtaNxHNJUpqZcedH+SrsoIBFhGfp89tBPDpXOY0JNdcueta5rE3LQJmFGtjsYtOwU1peNFeWPx5mJSb48kvGOYOEZ73iPBGlWa912IHMgv3XO1DLkaqo2/ORSlpTjJ4L23DtNZcPd5qoMpjO+zfnzJbD1X4nclaG0ozb4BYb9zqbaAtUCSDhLvOLDQnPFlh0PFqJERxpMfgCsVWJ0NPM3DenQNKxkvLxnFmz5VgSbGc5y5RmqSlnO6u7ybVCwrOent5KjKCuyNxsT/XrI5vAVwQTtr/XR312PY+JKc02A/6JCZ8yICHhWQaM1oeKxAiWya9K37pMvrHTlyIHxy5+O8rTZ0dqVETGS+Sk0UXscy5p8B8ka0EavLSKAooFQcKzCshqnorj6mtePORlwSJAPVOMMb7/m1MoSEamsQ4du2iZQyQ864y/c5ByIeTzCkbvVyjjv56fEMrDMuqvYkGYKi7Po2LRZ2FllGYh97fHLYeAKi44s6vxP385IDb8x4q5UtanuJGRZ3dyz1RpB1YIz3bycbSutCKUZq3lH/VGZYJbtCXCs1FR2PzCXu+rYqmowpJgTysPD5ot83g0+qXPJLlZo9v6v7iSvVIvNGL0LwTPUXdV6bhX8nlGB9P54g0D/Hi5yhjB8UosKcm0SmxI4voRG3rdKrISlkg9ZHK1IDr9dcjCtznvUnNlUmnCsD2Z7vlXfnLYgvBsOgk3suR1MYKuP7qtXnkcFRkDEVsSnimPmFoC7tnZ+IQC2dAavAJKlFu3ZeX0eAkp4dl4RW5DScpQmm0SmIEyDQFGDrbRG2ViBGsJLxmPa128CxflCM92ocJ91HFBadZHbh3ycLwaw2UzFyraobSKW3VlGIqtGohoGDlY8SxLTi3HCJZcNnwyYVXmSll+pS1DXtRtT+SaE92y6X53PUH02YvuRe1WDnXjYM1arc5uYadIbZl9oYgkGyIGWWeulPVgqkxRSoGm35PpCZVjEDBysJkyIKVZM7yyV/veCH2tbIFlx0h4VoZMYbr+QpEYwULpFE9UROUBJTRbNlGVzTJXypqxNZNp8rqd2SPhWYNHvUJp1uDeXi81100KZ0tzBuSe0UcwiWbrUnqsN0EEzJYjOuOVyrwZJ5QxV2qGKo13oIogRh0DrlQzJDyTSKzdl8YIltwZ2NielEAzdTJGDtZ8AsSeNfMgCVWx0dWs4AiXOZUxHiMIIItAs6VEonqvOKVZtfCKnPVVUXqMHKylEcrECNaSFi9agwASnq0BSJxWhtKsTYSKHjUZ59WBA65RxvDeRhAkPKvxlNfFCNbIop9LdNoiHNWJ2ihGtcAkXUK3+rrFWefG6V8MTSNtENHYoyLRXAt8lDt6MWv3vNrdVVX9QsbWqhuGOtdQEFht/dan1LNYm29VVSX0NnZTgoRnVZjycxeNJj8WuTHa9xNe5L1ZR4HtcSjMgB37SkiOkYNrHkNrSrOgTlzDmsK34bRu2dKAG85bNiB944CEZ9WIvt7fpXkm/bznvjf5n9liJWXPML42m/Cofjatz6LZshK67TBX1uD0Ng1meZReUb55x6yfgG7iHX/P4ftBjTEkEp7lnsrSD2Uozbooi+OvG++RyLZclvTIHMe5iGzqFSt+k7eBeN5Sy14r0nHpGZT8bCLIchY6VWN0sSyXEr+DshUYxpaO+B2eksmWVG9Z+mSomUs2DfeZXXCjX39V8oXOp+UH9e/OSVPwowsiGhKeFSCaJNWNESzLoUv7nM9zwGXoSZS6CZNzaOZhS8ythl+g9rUH6KnO62z2KEdGdu3b8/Vf/dWJmpmgC84qonFK1xjBjZjxTpt5YkT0yLJEr95Klq4CtZe2lzKQytKlzpsutQIm36shJojLJKhKR7NlCTqdKc2c9LNeUoICyX9M1NFxqZ9OHunMpxZ7yRt8w78s6OSsF9w84v158uqYRrxxD2af+D3k939df+soV2DkYDHMmxkjWFyXslSH/ic/ZT7Y7jnsoXsTMsZchzyF7i2NeP/sd77fvJumXx6CzuveUZjM0X2JCVTvKC9OgQ0JzwofgjKUZoXSNU3Ui90iYsMO8biKao73weKbewfGGzc0TWbbvPVnttVwepl43E/ItKPFty5+cxxVlB4Jzwo1SJkYQVasr4VClyUatLBvznyuldD95n9dKjoypsOYo4PdnoKeQj//0uGnuD982v0pKyVNt3jfxsitLxsK+1M/Sm/0gIg+e5aKiwcJAsbjOuv2WFBZPdj59EKriS7iGuMhZwjNuXNt2ZT61jFMUDHjidmg9voPvNfveJeB5tJFw11ZeZf3ZUJqaOQ5dJYs6+oa3ilhuOlH6aO6glRJiYRnK+iQq4Yxgis5xAmkh1enh3atWLqIL6EldN7xbUN36YkB5kqYnTXBTO9R77lQe8fnHmM3oPs1BQk5Kb0LLxTxjmDSiwX33Abk8h5PP0pfV5DiWstUNFtKJOS+rxhBf+F7IrNWZq+/4Vr86pZo5IVLyOU7UzPD6JF6l5RaEXvlPnovb2afDRLNeWP/4l29ht55A+p+/AIyu4WsxfbqEnr48L9mzvmfOHHqv0h4tvQEeqM0q9k4LhU/zs+42Y1AoXmH2/U08xtYKh2dvWPv906jW3p46ts3/2VbOhjzoWfv1VpeiHBfSvdI53369C3hjtZ8DAtF6p3mUvtExpop8vr1WakOee2CuTLpa1hgkPRD+OEQG4w4MJnkXbsWRH18vTuk1p61757ZIWFveA8FuulrtwhGxcw2iWsbmvsm6d15MCUrlB46VGH6KqzNa9gLkPAsh68ylGY5qbr+WDZ6xC09dUDhiea5GhhxDIu63y2IcrKY+5d39NC1/b/73s+isYdoW4N+XCfEzza08dQxPc+ET8N3MR7QNP454UqvCqV9XAs+7sBNIuBTRbolUY9PhS0/YqH0Ouii62qhTVz/ybPZk0tPWbh3za5v6d07OL48+kgvoj+fwLwF0Z5yZkgJV2bvgG3UpIY5PyWm7RECnj3widDYdaL0nePUWY2PTUaeykMkPMvA05TSLHNrz4exIb2fTMnyiyyU3rEhwBp6NqFhP/mHOqPWb2C2FNuHO3p4SO/e2u5BFNFDMPPA4LRa6znZJtBLEriKd+ndR0YC+ExoAQwaeEvvJt2d9jVi8CXpbUPCsxTK1jGCaQ75A6dz85bPr69f5hvoXZ//pJ3Ptfsj7fbnV0fk1WcnmCdt6RN7dnf46Hqz394cPszuL0/JKZhxzSPecpdtl9cauXxLLh/06I3hzI/vb29gAHzKiyBzuMmrurks0wHT0Wwpwe3LXCnz81u5bMm7B9xz1wCdEkJNk2qWEVi87x0xnU8oQVvvv7Lsa28GUa52dOrfQyPOp26DipB3BrNSrsc7SnPrCVyWieZACjTz8FHh3xVddhv1HrttXQDCyMEEve2IEayjCozPFwGhN6g6NSPmeJoVatRx5zChBLNU4HPz6Zt/SD/SV553an+nBpnDQNYVvgtF+etgsNmzzdC+t124WfRDwLsH3iiu9Nyqw2fDYAOvnPhg8r9Wfx7+k9eliwDHYM/Yjc3k0/nQzQ5B2w3wraSa5wS2HtffOHPBfHnqPp7QE3pjXR7ar2yTD2QJGHqKN5jhNemngP5onz7AuwQeym90A5p66kDWISh87HUGNyuDMBKeiUepDKVZsWJ1SyV5pzGuhIbHex2MhRYYcqCZdxk0yTo4WJ6egS3Hsk/tj/DPvfPeQmuvm9CYg3WmUAqHmgSc8u0L78w70sH66RlnlgZNvWWA0sNnRbxkhbdOl4iRgxz7rjGCvT2/IYYCriBeSkVkb+N+tndhWM4HsK9QMjds4/kZ5VNW0Bm3vwSXH/96ZR9777wjz4s8YoDGh8UWFFDvM4/4h97R7dEJxKRA9wa+GoYNHxOu9IzrfafNGmBwhIRn8EjaUpp1epqFNztgF+97W8rx6d8woPRuNPfD0+P5o/Pt5kXw7OW+c/dGzs8bj2DN/O3x0+WF/XL+8vLi1tV+BhPOr+8KBDOuiPFM/8WLjm6OTudJB+atq9Hn16fPv2rHv2lfvxfc1iDJGWKdQowcBA9Yblnrf+N9BgU3bvU2oQ/vM9di/kv/xmf2jZ/ptcNEgRsxz/CZx/zw23dg9oQGnY9Ylzfih2DtD2gI/36mf0teGxi6UseCvpNmO4ZwqV++b/LfSHg2FKWZ6C5M/nxXBXg45Z4yxLBN+txn1qnPQPHdzBQUdNKp+e8n+0f63P7RDiwLZp1IUQfn+kpjnm5fwL9T+4d9cNRkBng4eNBl8gKXEUqs/ADYUcRm79C7VVx2KcV8TIxqu1JpYTmH4D6fMT+g9/Rn+57+DtwI0qbcoU++EbnMcuEfs3jcCR/+gvLnN+5vQx0vso6jM+8ObPoQbWvRB+jM8+GxZ8DML/c6W2xmcTDX4oLRjnad8EwZSrPRnjj43YDZPDBs6LJEZy5EyFoRtPt8vBpvbxmLAts8eKJP9BzMPDbhjsjQk8mJyN8SCBjxYUhkH/pHd5dvRaeewtwX/A/TANDBWTIFCzN+LpOJfugzNftdI8ERcF9wFbYhFcKxslZynZ6Dt+/jk/8+vDIfmf0DNPT/wWb3hn3PgdC1izOwNF4Z79wz13Wjt5oHnjUvlydmubPNKxsiBCmz/0T/OL9859IzGDXD18Ohz+fPqfYRukldkB0Skd02WypjrvQGDLhyF7EdXAtPeXCf5f2NGp73d3pHf6LvKLvm/70DZoQXs18P3a+guO6h++7+3f/a2vd32ikMBLTbbPsA43Ri783fW2dXx/bd7AS8evRv8C04/pH+C2a2XEubvTLedFH6aEBEdprwrCul2bqHumQwrLicDGCRLiuOh3GDB6VBX3q3L2H29YT+v7kf+v5/cIa/59dPL8GrANxuwmtwyYk9Cvjkas7oTqBz8/6bwcewR/ZH+gt9OnsupmAth74C3/zYWp8fx5aJU5JO3AHb+h02Ww5lrkweI3ADlzzQiZM5YQfxXdD6W/87zL6efJ5f0+iG3kInPXT26Evou+jU9IAWBEwx0EOHQSmfuVqIDcZIsP7YL6FzdDwH403I3vAUovnfKXPpD5ZmsYUPwuI+ZY52l/Bs6BjBIduqLuoj+BBM8KinhmuH/uWtd0qhxX4FBDiu5X1+6UHDfvMNBqMwowqDUaqD+ZFPti4+XBBu6MEoNjqzz+yjMy8Ckw+0/WDooaFvXdtWCEai1MMyIyqBaVolNoceKyHH6EI4s2Uz3OgiTFQg8YC2IKCG8YaFvJNj0Wvff//mAzhegmLzDwFYI6FnAyoKAeJc7/lQeOGfCJZ7mOWy9+jxMf395ek3Heav+KwWOG++B+/kt/C6gHk/82WQ9XTALU2NzT3Iju7VkGkMKZShNBujsvkyyMMx0YzZc8f+w0v7jx8P3voP19S6YCc29T9Al9+4dLW9S+0vN9rthQaUZ8ev4P7jtI/+cGPS4OP887vZ7e3sN2r+wX/6x9OHVy/fEPqnj9T704zAMpYWH/0qu+1o5KAyMYLmotswmI6AJT6XNzkCT7Tf6MunI9+Ye7/48zv6x7/8GyZVX3367wvXtm/A0Sxwbf2Jmg4EgohoW+imxxv09907nR7a8z/NPv+Bhp7/LyDBPGSGZ3z2f/HpacQgcGo5QjdXfvUPfQREdpLwrC9Ks+rHV+dstKSQde5pes1KeDUwdjiaMbdMRi9uwIueHt/O/vHnP7gWPbDdMIz8Ny+Bbt+0f+FD0tjiDgEn8cYiiLKNLP/Enj98oO9tC9jQYPKWuSxy6eG17YH1prB3U1fqUVgLdjFysO8YwZIHSvItbOFVci608ORgiQzmYGEBTBbY0XOLHr6jfzkEpjPfOoEFqCwW6LCAFMR6C8+bOAAqneOyDeY79Hf20cncvvxGbyJo1EHpHf8l/c2z376l//0Avpzyu9CmAskaEW1urX3PDhKe6fZRbXg6XKj7anpb8ipxldaAy+z86AW752NZCsuvfXLfMzDXh+xb7ErPfSx5UCFsciB7c6vZhseO/h+1f7qdzX7gpAmg9PQ5feV70O7/ANYb+DgMaGbn0nTfrMcaDVL3YhTKwRIGieEFUobeq6CqwGyjC8bul0D5FFqzj++vo2+UE4J4VvSJ8E8BN8oAZYjQjgQxCBQ3fMO+sc+OPtA38+OYlB6U/osf/Q91I+jSw5WCvrWgTDB9LjlfFl40RuLOEZ5tJ6VZU1UhFucnd+a+AavxPPwLvCSpF4J/MN+cM878eP8CFP83YXwUXKzgeXYVakc3VzdXbP/Zr3P72YsfxOUn/33lnh38cHkUvTg+fQZXldomHWWmL1bYsERNtvePD8ERO7cVfM2/cBozcLD3HAgKf2voTxdeQv00d3Vi+PQH+BQIO4wMNIH+vcnnbK2jb9/ozHsbzzqTD3/3wHDjn/jza/smAk/7DUB3x8yWypgrnRGnSNyibrbu8a46dGXO9CcGFPVAVZ+IpAOvJXgESe5iCJflesy9bljkufT9jL4B281pbLxnvntKj36YPb71z1zfSAgW2ii+LL7NvU3v2SnCs74pzZqCvbieG/fG2oKClh7KZiK4w6X05v9oehjRz2IdKusnKng1OUElF1Cy6zHo6sBU7OE7+/JX2/7oxSQfoOT+2zv67sGzP0FkCgEvy7Ybo6Udo7ZZlt+3S2bLkcyVEuwqei8FelmB/ROYCPXnHgUnNBMWVDZgDR32CSQjweksbsnBTV7Uhjf0Ly/dQ3rm0dmJ77P46+ECncjRH27p7BKCUlwg1Cl+vyQglfsxZqakADtEeDYypZlJOzJhyEc01J4vI+tC+6oH0MGxz0DjA8c5D12f+tG9KBS80+LCwaEGFmGgZxb9cPt7+2dw3OHpoOTGLb099t5cPVEIMHRP4qvL/5IR5lzLS1+csWbjfWkXpU5xNHaMYIdmbyx4HHcWd1SIs8ci6ODQOZ+gSooPn0k/mqMv2m/ez7/3L3/y3/zp9u21+55fYl1rb/9xOffnl9dvr7980x64q07V5igTsUY3YcRdBWXNc1tNaVYTg4LL2OOHUGp57rSxWE0ZXOahgxOdAZU9zMa+4mQfcCl45wSPXy+Pbm1gAwGPy/UTU2aX6dqccF1/7ErkoDIxgl0fWJv7K0aJJPSA6Gy532H4mVYZSDAhStw+Ozmi1u8/w3BVKL0F1H4Pb8B+eQadfJjN6kps1qZebe/ZEcIzZSjNDOnA1faBtbjPKyLoC9J2l/fu7wSDMc/bdAL3A6y4sCgH6OZ948cjenYyp0CC5mjcHweIFbw7/9cHj95+/MxHuvBfuy2YAJGdiBwcOEawwdMOWitHg0KWLuVBIitbAIFQ6WYCKwg4Itgn/A+Eu2ZvAH8EiB/xr2374eQDdcF6yZXeZ9HRkWfbdx/hhQGTZhDPV6U51j8I5Hi5/i3dr9wFwrPDMe3Ai0dS1Kxn9Wlx5QRHq7YU0zkHwvrlDWw3sLK4fQNvhQV9emjQuX+yfXMA07MP7+j1HRDlOFoUWzmXb67ze1WQOnd1u8ah7ScVupU82t3gZDVaWZmCUptfJm3zDq9/Ma/0259/Oj56mD/85QEqcHRH/FPb9f9ye+W9e/bTg3UCTFI1rVXm6ls1CSTbT3g2VYygIg+4m1adGSFwfPwfent2Ry2gogfTvvd5Brz27+kfYRB8Zu890zWr5qyEoQrN39YTnilDadZN+6a5G0yTXgiLOLyhd8B4cCdmoMjH8N8QVX5N37ylwH7pQo++5vutKzMttO1my502Vyavip4aaxq+O5YLI1k74N6UP1jeddJPZGdAnTN/mM9d4ILlS5M0zHX6y7ec8GxoSrPaD5BN6FTuZwnzjKhmwwxzULbOo0cM++0NdV2aKD2x3x7ZJ1f7f/I5yTEEndTGIH+hMSEiW2221F/M80hP9suckL8+p+V6Gu69FgtowyH0GwLADz7ZECh1+k8eVciOP/CFxv0zcK50bIMze7fbzPqCtCug6q5tJjwbmtKsClfutL55X/5MjX68Itrl/Tdj/rf53snJ/Zvv3IxvMfbun/al/+vln+7Obi7Jr2eZOzbn0NleF5yJYwQdYAvb4A0GqQSac1iYx4LmPpRrgd/TD2e2feIH9tOBEb5oOPdg5D4706GzvYRnU5krp3uWfZYMHRfHDoHdBharCqCFF5ZJ3aXWBwgRBy7XEFaVzU7t1ilbmSjVDY8cNJ1kql1fDsVTJkawjjoodw13LgiB1hgovp9THXzMYMkFYLS0vlMP5mJ9Cwz4ZgCMgI22KWZgiwVcJTwDRUo+QyuaVJzFZKlE+I1whyfGfUeyc4PkANaGxC1GwKk5g7TAiy/bw7jKf4cBK6d25Uv4+EH41bLfvYUAQhPGuaqQeyykrn+0FDlIItAfKgZhK5pUP9NxruQBn8SFaLUABIag54yajxwjWF7f0M++i+XXDXlGuAsbTTiEuVnGCul3G8w3Zxrb0w5t2zj37Vf2NT20bhks9bDej76kSoY//Wgn2D/MSufGigRav6pJ2etUOPbF3DgovMftxU66ehhMmCtDzE1YW7NezwiTFYbL8gIEneUlxAfeutevrsirmakzIHl19d//Y2bRj8+e6L129lP5/ZVnmghSmVGXk0DdmbmdCq85D+KqVjQpc5Uah4JFTwelj79MnLgu2caiNJPlFe/NTe0BGNCaGHbgQTt/rcGSnC6oCFCg6d7RkQWuNz8enRatNVsMgpqpecKzWH8sGMisaJJy4sNqd7oDkRLJoqWL1U8ViRF08oueKYdfqUB8jgFMNjDpCgtQATs9aP2p7Zj22e9/nZ/a3I2+aFXx0uwyJ4ibbWEzJ8Y+XDUlETuCuopgg4UmjS1WjfLE+AMWro4pKxai+o+wPnwyOWTIfRLhI7/yLEHfkvu4PDNxMtnp2+dAcUx19+TBgjXBYUnOV9q7F6Zj336G+BHL0+n32LuyBXQu3KME8uSvS9EvpgefsxVNqqGEI1/iUuYE0DtbFvXir0DQ4iTaGzNPc2NELJ1cbUByUUsCpmQdVFgEW2w7fTvYBgA2CB0B0ySgMef+HAY93X9xN7+xdeuFEwqjwWZD9+e9+EmLv2AP4RaHZU3KXKHIoRl3wHx4MrmPErEPQH7JFa8nLbme2GFlNINcEkTG1CUmBSL38ja5b3E70bUJS4enlJb+RATfZM26n4OmQ6QUvT+9I1zpn2Yfgfzyv+w//tP7HQ2+2Of/GTvdtICOozgC8tm6Fz843fmccYsO7Dh2cUmTIBvVNvlawjrtohWXA9nX+4oYTIwpokCLnpJBL7wGmATH4IMAg7rn7J32lfcKn87o13/Zf/T+ado/mPbP2vFdUSk10pRBxIFOAj2UEgdUjr7ymiTPK7RPbJRgZeLGJhiExL12dcyVGieUVGIecnm+uvopQteGd2viNQePRXtOnuxTz9NvzzifsaS6rM6l8GzQ4N0rzKCvRCfUFpGDfjp7l9OkvsrqNR/OwQsUvCH0Nw0g3E0mp8amNKuu0iZGb8Hwh6+gDF1229E5UYJnuTPQefJ7jwCfMSc3NKk6AAAgAElEQVT+2IZNl96WDo04oSc3ceQ0SclKmp6cPc5MHitirpSAmRuoIDDW5+N4UPpI9BudgLG/g867QO0EHWGXf1c7bMo4oMrIwYCrEWzc9JHRpA5VHPRWx0goGHVDjqrSGMEN1LZBsaqfOXhFg32eM37wndj4SmwwRRXCiwBLLdfPquhKN0evU3TFSGmFhGcLTRpJih6K2dtPTJM+rJ+EWx6BmojQ55p7DOsnfwcFF7cYZ/8+4zp/Tz9p2k9pBzif+Qb+2pLIwQWlmWz5J3oW0vQ5UfGLYkn6xSNWvZBWbrnhsxt82TXLIzqz7d9MmJQ9N+1XkHqQ2AAXRdQ7IqqMYbUUEe1oKxZmmjZGMPP0wSaW+TXhoSMtuTDmr6eu3HLDZ2I51wHxLqnHlQTaeZPnZLRegsGJ3bomhCIp2gR/g2TbCsKziSjNJIbZvZwY4mkyQCF7frTjxpQzAbTyYiaWT4SQn3kPXj/+Guu82cFy01iQoSDKfHO2IXJQzRhBbgfboE04bojOPO/gwAZm4UgX7TxJPxsbVJ8qUbeA8MzIsKtXVXXkc9lGf+Si2xQnvJSEiSYmc+JrcIJbJfRtyC2Mb3vZwpw/ey9ZtstEmi3b3a3AXeRqKUawNb2XApWZToSTPSj77XcugPN483TEl+rRwYUeEi9r2n/4vZWb9HWtvGiMkxtPeLZCaTYNafEYz6p1GeAEt24TfqgJeVngz05B0WFNQvjLY0m2bjP2X29ynfQXR0vir3/ASzf085MoM/uyIoguos2qqym6N6mvAceQCVNUB50nYV+fiGrR159dFWSzCc/UMVf6i8DF9Y9hwCtgHnU598wyJMun5G8mpF/wVOqeCOXuoPOaLsKZZQET7qEuy6XnIweXzyr+e2JKsxw6BZ+YcJKuQYEgOUGLfgjrjUauzljA2+fAjviui87D7W0EKRKuc9qqIJtstvw1Xs+6MyrDZMDAk2VDNh4WDpseRj6F2PA4QscYoD8/STOw+hA2mPBMcUozJdzqVx94Ucr5wkajG+6JUE33oP+phkiVVmqV8KwIFgXTwOmmeKwUpHPOCkqtpkgrSy2QyL7vX9R0jfL+s26Y4xLhWcO7p7u8jNJsExfLGBpFc43rF6ykmRPBhJipXMK2/QgWkYObVDVlYgT1+ot9DIsvicoGEUlAfUXx+abesGUEacUt5adIpErf3S1DRMsTnpXXRa0zalCaASYkUqQ7RcoDnNYqYa6p5/GYXTaIMOxye3/3QuRXWWZp5GDZBSqmKxYjWAKRXt7UlNwxVbJ/k5RMfvw2gNlmqmqVl7tKeFZ+rSpnnm1EMACn99qM7cujiAaA+JFvP+T7933L379RqJWEG2i2vFDTu7IV/GrcFNiWDgRPg68Q56kS1Bnucze7DdoWMYLFQpPFlHrxBZi6ggCx9mnpUHjl6tYJEwd1ZuSeZwjPMsnKHq6jNCOSt1LZGowvmLF2dPq03WbKZcgzhGfLp1T8baqyAkNb/ureQSVr10CDZZF7L7UgQ8J98ZXY1iKSITxTQuA1QqhDaRYvwrdG3DFOG2vtpsMOT9M6hmsFSS8d9sBYazfdKLNlsFFxm44CKy4Nq14bm/smRQ6mlGYbgTZbievYCLGHFFKVoE4yOxjp+9cZzZUYwbIcd2tcVoaCgum2pYiubQzh2TpzpXzIurW2Uycvxf24CKjTGnkbMcepaXVjBOvSe7V+3oq0Vg1ilIg7LAnb5iGyIYRnjiqEB3xlTzW22uP6AOhsBtzUIYaq7yW6GZGD6lCaOQ2UftAPulwXcUB9rpd1E0Tq5djyKrN2nP5GEJ4pHiNY8pCUofcqkW+Hk9ls7Uz11OisUJpNLVC98sM1kUv1ctmqq1QJ6twAwrOyGMEyfZDLbJadx/SJEFAnqFN5wrNVSrPqZ6YviMmrL8Szu4uA6oRnjWMEh/J+UiY2pLEgptdg/N3gTWgsSIO8G13aWBDFCc+UoTTTbVUmvuymMRnOQF4RyiDi+01NZWqbLX1l5s8W6zrVb4UaN0F1sm4jSJ18G1+zwYIoHTm4meZKqT7K0HtJgXAvEWC2spGDpZRmUna19+rQe6mCkzpBneoSnjU1V8pn6ww69y5LwX1jBNQJ6lQ2crAtpZkyS102VorhbtggctnhQMjmrCrhmdd2sfa+B5CrS1tk4Rvx2GhqppCy9R0va6jiXtm6C6lo5KA6lGbWEtupVKXR91ZbDguz5+mL1oL0DVnUFhFNTcIzhWIE2386SL/OTe0F6VnblBk1tUZEycjB7aA08xpPnPSsnQpmp0jXSEHCs7oxggo+1KxIrRuibCZbdaxOUOfRi7ZDpKEeyOF+N+fcsOde7FD13Ll8Bw/qrI2ocmZLs2OMoGF3e2dqI7dBF6pDKqkIaNGBMkMTgUjnGMG+Oo5MFVw6C8JoPx+/UBVEOguimNkyUIaYmymzPh7tOD4we+rBsq6C9NXOh50FUYvwTCFzZfdPRv2g5Up16C5IZfb1TyojSOe3mMxUmYEB9GtTmtV/UhNeGS/HPaEA6hWtSlCnQoRnuj1X7zm1l6hzg9S+aEXvVCeoU53IwbqUZmseqT4wvdea4vF0OQL9DKnL8699RhnCs75iBI2NWfSs9jPqfGGIn508hqpEDnY2V+ar1f5XNExEdXOBeiP/djtS5yvz7XT7CvxVhPBMnRhBQxXHmaBUEPLcCRhj7okFG6VzurrNqQ/n2B5zHKJ3tLwohEhfswVsdtG8Fer7jg2lNFsDw/qlYdZkkD1NHOe5w1zLskHFubYzUOnAge18tfein0M6vBfv+UtB7WOXBU/ZzHb9WAnCs7Yxgmo/PK+bi7HuOAZjvDkHxRXNuWedMsNpOl9lOhfM8ii9iqbv3KsS1Bnsv55ad/TZ0dQiKFO+6YQus7iSUuqJHgpvzjv2UHjtzO/Mo77bOhCrD4TUCeqc3mzZmNKs+gGY69dZrM5girM6NOvXvO/iWx8ZtOd96PlKPUjAvIMpV99t+pVaqUFfCZMTnvUdIxj0NcrvC+HqfPSAnUDDblvRXuis9s/jm6GTLgavvDdvHfPPQDqChZ6PzRNdBn3858XfBN1NM9ZdOqXaV2Mx3tmpzZbKUJpZUbHKDPYo9FcMOuxetLfU13UtoaN8MAp9+ljBQa9PGCg212w+fk379jDEhc1w+SjXh2v5GPf5UpMaxRnGFWmg9tHYiJRB7fY9/zIx4Vk4U8U0rkdpe1gGfm/pprMX+fTqsMBXVnfurR9c3px7YHWEnk6Trg7hXwT+LbDcV6W1AbU/qfV+j4lIJbS625e5UhbD9vfk4fj7Dac0qwaMuH7uAuKEe4nZ0T9hQUbxwFbD+CneVoOyH7OXS6pu8vY8buPjvw50eXKZ537AEOGBHpVeoM9VaWlyUo/5Y0rCs9f7yjhlDAB52kCZwV4EHRXb+oV3UBbKqDshi05i47volSe6DjNQcCZvshSvA+++w//weiSzUnPoz4RpZydbB2jQS7snzMpeOeaxKkGdE0YOtqU0W/eYus5Drsu//nnyHHrbYJW5BptM5i6u7dYb/hq47Euis9Cag6K/i7vxfHTqJjNQmU9CJgt+SJzzAPKHD4SV+3LEl5mWXTJZ4NhLGY31s28OqvZyT0d45nUOhSmsdWgr8f0Ao7tHZ2d5dddEKtgmFwNOkysun4ECRWduuBilaonZZg8afdj4QJYZ8BFYfQvMMLKp5y6HCYd2dgy7wIpMFh22KvpCqlGPJosc7NtcKVEzlx++PFG2Lx30ld2wNt1kZ7z5zc8GmeE1mCch9XlyP6h75M35kNWINVl//hwmYlkEfRjevZ/HPgd7PzMG/73mJhrrWHT8rROXLfVqdMOyfZavColovPTkkjOPvw4hZb6Vg3FysolaRmViBLv6IubeAf2cwTyTFWYdXvTz8BTU2HKN2JxogpnlPVhZvIgFPEV3gr09oeiXvFvDXlebbaAn9El4F/hne1ktJ4ZFz7IJmvZlJrR+yUnx4SYn8uqPXhFZzb5+CrOz3cL69629ksyupvjs7CkTDE76YWwl3CmM0gdrb9GQPv/C+Bj20ortkya/BEau0Gffe/lcg59gjBcj2ZP3MMYl4ROYacK4JwO2eWjZ4ebE9+Z4ZcwKpk/Pzs/G6cdLqwqfFgxaDfrjGqVQh6xmMJ+hSQjPtoTSLNYemFm17Dc276dIdeJ9F+iK7EdxGlzBuzLQmQdrC/c7iI6F3wH7u8HtjwuTJfcLPhT9mdSVkhssHedHeF8gQy8/ZnX8vNobeTupVvAVD94oMeaRQE21n4LwrKcYwakgW5Tr8P67H7HFAJO/AknfBb4h/ANwwv1quI9v8irY1jUY45+gUb/OmSyfS2O80HoYwfJ+znn2O2warg+Kf74o3/CzVhqSNw68mi0uTI7Mab+wygR1TmC27EpptvIslxIWKrh0otefwmxiXaTNO3TPw2sfHBrjyVYSnELnBT4AX+AKsNv8FL8KT3mTJW/oweFMdHPgAj5a5f2apHtj2dC9geafLd4qKPXSz3Rrfs7SOlm5mSd3qbcDdk4v6hWCppmpE9Q5PuHZwDGCjC761U0fS93rAxfMKzkiModBK+zGk62iSfYPhaqC24HHdf+7yZt9MOEIk+U5dHJc6xLMNKDSPNDJ0XTZ0vP+zKKJF9710B1afE8ItO8LRzIjo/Vhbi3QLNth/MFwveyHo25dt/E6nf46brWGpjSrTe9V+8IcPvo99OHtRL3FGei3/NO2I2Gk1EGz30AfBH7ww1tqg9sBd5YHveX9/nvQ9mNQfXCuZOE52GLAZeb9P2JjpJh5hZaeWyb5CBbeh7Qrw7tNj7P7RBLHou+lUC8XlvdzKhNhv/d18UNwt5G39pI/2uKC5KgdIivZdE/Q10natYiRCc/IwUyR9sZtvOaPw2Am6CG6ST8lOtgPeb/lDvowoJfQSQfNDkUXJj78buzFvZz33/loFAawluv++C/uHSYcCsCW83rviO6tdsnAK+dT9JjzJ7hemGPenSaPnXi3Ek7TXvReSJQdxvJvUuD7WVNqodaM8ZEsLHg5Mfv9Wj7Xy++RIwcVojRb1bQKQAN2zDV6cQ90r316GXfhz7m5xnc/OUR0bbjm34O7AbTZMGwFdY/AYwYmon7+9FoY2XkjDgNV6NHzln6PXbuR6M2Lydesc71uZTspQar0jmzeiZd2WQy66NI7tpc32utntcawi9pVIDHGqSwIg5Q3KuGZ/mIDYwRBv6kdvVx8c3UjmkkLogON/WfhAWO+4i4BYKkRX4SrOxY+3nLrjXfNvryCdh469MfggxAGPDIwtsLzQesen3SNfQ1+FrZJeGdS/+AwwxS4cJyx5CD1MG3nM0zFhGX0n6sMJNzlX4JBFGmjMh0zcnDzzJU6+wyavFB4LeBjVvacP2J9D9RcjGhB9W0K/Xfo5ByJL8KTGLaC9SaEJt+GOSr2Co54f55a7xiY7J1z3tLDluxEhjxTcEQG/2A5VoXGXjqPmbLPnjb0THbTibuYvzQ9PyMtZGjYHTlwuFQ9bcoEdY5IeNYXpdmaR9DbtKIeetR6KXvNoJBGNE/GrJoJyn/Lu8tmeCL0XDuHIGwbHA5440/fuS+/i34NdGU+3VxDCrTgLrTzjB2LwSqMVrlLpZx95W9DxC4SfXWiNLwvtD8m1aWJILKhD6ShCno5qZ4b9vVCXrjR8dK3Zg1qY5xWJ6hzvMjBgc2V8rH140DisHfUy0yGgy4f+LFFRX95eEm5wUY33G/8QwDB17f0MgrPDbBm2hH7Hlqixf/xd8z6BgbHvcCB7v632ChzA+37aneDcDvmMb1MKqGf/nkvPvyvR6HRhF3F+5sDcTNh8+QbYHxOezmO9TU36eq8o4lZf7VAidZu7vXZi3EqPhal2doH7KQGmOKKgw5bvGVODR5maL0BXea/Qc9h1PrxXhOK7rsv9QAM8DAr9bcv/IT78m+GC337m/99MiD9HxG7J7rDjTgeeymNjmmpy8u+fkq744F9JEp3LFv04I3PcwNuI+9tEeFNmJ14TBq+L4ewYMt00yYfLobfp0kV1q0HuyxIKuHYB6MJwuyLMepGbFWY8Ssd76FPA32YMNUewrXcEt16EriXoLwwCeUIPpmXYKQHhb82YO/TB9c4DyMw1MBgNvzIXwBD5xZ2mFs6SaayuJcldG8Exc3cM0iQ73sENGm8wTVYaDKEQbm8twIzUkLlQdXj/TexhzFqnMAfn3OWjgTE0+SvQPr6i2kEkVz8pxKR4luGSR16Hmch9TiRgwpRmpW6jZvQi8/2aXSw3PjxXFR8+B18aoyIfoW3wgwfeB9ed0RLb5z/HFtvnnNzvnfzBV4E8CR443E7p4gPBO3n3XhwpYxHsPCeRC9TtYSnYcpX4Ec77qQzW/ABgMrzTorUcL7/wh8ecWex7vPRhm+fZvN6+cFe8rFfPO6io1JEii4eMm0wR/ploUchPBsqRnC5Mu1/k/BoSePhDYgtN3p4HB/yt8KHdps37daFyd8E+y6EFp5bb4B4EkasFt/HTvPOPaQCc9mcxweukvPxwfAvqbzES0yRbF80886VUOnnRysqz1t7TQfd/xTfrLu2n/WShlP2+9x4Ni1EgQNV3q8xzJY9U5r1/vQcl/qvFppCjPQN4EYc7wLaUVDSOf8OBKczbsQJ3grrpQFdGTBiBu/BeBOFf/uRG3GuL57zng3MSoG2i3iREnmfZtIkqUXxTBNMp/KuFVjXud4Sl/7ChWJfP3BV13+wrVjlgb4pGZkEP6WHohCIKImvEb+U+6NMT2oEwrOhYgRLHmpD8pbvrv+YkhhAloH76MdtPPnk+aLDozP/MTKIZrqzmXuv6e4z+9AgjvvGPw2IDrtfIDzKseZv4jAp94B7iWV7HEWSBuzqQaSb7MM3fnHgfr3lr5f79QOovuM+4x0dnc2EygfRwRkYSaGPf+dH4kAj4fzraTr+4O/K51mjfo0ofcw/jYM6BxPOna0xaHQu+cVsnQJ0LiKbQROaLlDn2Smos9zM9+BTFusUNP8fhNnSOKMw8ASd8mgEUMEoEawoxPCEvUSa1RdjR+dMThzJTFf3YBKCMQEMEvgXRLxPAU8INP099PZhd+FT+EVexi23CX0WYZzhBz/EYPIuTkZweElo3N1fLY33+4tSdzhtcMKzi1reHyM8geX5EcInoDKKo4c+PYvVgx8K5ed95BtQM9CpB3gFdPbhEQwjOnsmnNuNZAI1AOtirIsQqp3xei+qFBg+L+mR+JYEYOHkXxDY26fP4QUQ8vAu1TH00yH1M7TcJLyFiyAn/p6JA374NtevEa9g/K4WFanZS7FV8qJlRGT66HtHWKpGLHbgyEF1YgTzM+G8acxMQPEIay8ZEgZvk8Okj5y8AuISrqNx+8vfB67qJAR7efyxSIwtpQ+P0wiDSehfRzBcDdzPwlHZPOQOy9oTt+iEuhhE8LEDvAec3yMAExKfrAW7kS/F5WmLiQR+6koKUFJyphOUu8LsyKmfy6zLD1PONXfJpNG9w5otX+8P3X1qVNn4YrDzUfdpcaPpguLKfgPEanB/dvC9Eba/4ER0b5xrUDWd90fiVHAX4O2vyd8dofLk1XyllWfpWBUuBWX9kBDGm1ynYcKKG3FgVAq9LPrWINDUx6Nl94XQePPUtvkngVtK5TgjuIY7F416fEpBhBfYqnk0aOSgiuZKULlc0/gS+ueJHoFi8g68pt3HSg3qaH8EvYPuzke4BLrwt3AaxoxC88n39E643v8tbu8XTzlYsM2cczUXLS45/0V03OPGHVSdW4gMwpt6K9TJS7CE8vfhHvo+3EqjvzyTGv8EQwH/7ULDYyNqWTO+EEOpI1W8mIckPBuI0qzDc3TcP98tFAcU2T+SRg/9LGnvTetSpJm2eAUgYkO05mwe6+3pZeyL5vxZ3qnNZ1lLykI8TivsWh/APQfKfOK2THp0DdNaMH118A5sn9DfAQuRw97w8awJXpbfoG0nP7r2JZ8Y4w355xvxSTJ/8B+txWwx2HEseind1BblqX6kTLyKTnNBln3iFsTMQ31mWSev8iXyoEOe7ddo+k/SMYsbxmPybn4gGm0jZguTERtGEnJFZOgVOTqS7SxXz6+CtuklD/rmISIQIBJTlnEKEHAqg19HYMs8D3/hZn3m/AcoPJj3wVNHBB0G4PMQgT89N+3MeX+eBIeyjeejimvxBUpq/3QDPZ+4P1YHD3WuUSYyUWOPvHs6xDYRpRkTE5urFYKRZmJmic+Bh4tsoGGKP1myAwLsRIwq+SUOvl7ofIJSmBpDpKeMyA2WSwBlT3kN4FiQVIK6R7cwWwuxVtw/AY7eG+CTCZO13DcTEnyYwwp5/K1BCMwaxN4+wsXnreh0PfH+TzLG5gWBS5BN75o+MbMEkhiIHfw7GOGZMjGCgoXCeMiPNEHl0xUvvviJM4tuJf6OgT8Xum8exfOlZhp9ml3kKkicZVa1RtA7ceYDiBwMnoQ/Duj5e/8TD6kFx8vv77kDJvhoClqbm+fg3wDKzTs1ZngHtkzRlQF7D0z6ZqxMwHAmXYJWi6xIIQnFZXqJkbziacJUB463GJePKsNAkYPqmCt1N4RW/lUWVP0mDdeAGaerpCGE9l70GlLdD+mN6OqYL2SoniNjOkRu4DuQNdFAQ8z9KbkbAmc+MM4JBES5ZxA7CN5m96Fwut/7HkKDDnwJDriocUeGAFzXYHaKL4IpIg4tMa4Gz06u4As3SZN/J86y/fpsfdYcL/eFiCpLg5Oyz/KaCnU/PQzhmUIxgvdLFJDk5uAn2cKQ09iNlw9qE3tLSnl9l0Ro64vByeFdHu/AfohEL/4QuvGcx4OHfzsw+iRAunoyo/sQLv5c/yI0lgX3pxbnzgnOfwZCY/DcD55e8TfgDnTZuRGnuFj6Kx5xfrdo4u/ZQxKgmC8cf7VHYBCz5dCUZg2qy6RaJ/cQ71iqvKa56fGHPyRWR5p4MWry62DSt3LMugdqDTFQi9LJK6Dkg/C/Y5eHwILG8rb+BFpl+8TdC4/vGTub0fldeA/UObyBPxcsaeCEb8L0LEy/QksPo1bwgDgL4w4VBGM98ES5wVTVzNrLlChPbOa+t6DOrtUfgvBspBjBsqovrObkJMuoAdfLsam41UidZQJb5pU6K6ZMLOb1YjTpMHCv5N0XST0p3ORhqW5usfkat/V7xncY11pA68cZXP/3JQ8puXoLHMUM+vk8ptwUXRvuoxaHa3GDTTJKtT4tFJ6I6aisjVXKuLH7foI6e6i+TlOTRA+5iSyMx0kNBizlNV0ZbOZ0fjFA1RY0kFEqupFmw10EEucXXj8+UP2FB3hz6klOPAx2G26x+dd3WGXB4iNY0Pabv38S7B58xPocFuaBjkzEzrnvMeUcCjBo5W29n45aH/KjVOG2AB6dfT0SNfJZvNFTy9M74Rm5mpbSTK5eucIGk2/n0wAOaGVT/dbYgjSMzZ6nzwbcHDOriCTJekzmARzzLu/TiBgpFry6B223qVgX7f5/L3hDb0NH5h6MlEeg2SDdecgpcby3YqRqGtwth9vpZa7cminGtjKl+z6UY3Fl3qKJBemd8EyRGEHTe7bkPK0nNshYif5wlAKfIXoPMtN1P0sDvrgBbI+Cpg+0O1k8ge9ES8/Hr84TLKcjtB2YzcLwxz0+B8vV/SJ8ef3XAxgOuOw8npmdA8cljBM43Q0of8ZMowfX8IrAtwEGw31uurS1KrP6WRom2Wc1m+TVs9lSEUqzEEawYa5HTGZnqZrDIHa20KzL9ylejmSW4Skwb/WuOioE5qUMtncoltOZcY7W+/tP77m2eydAbfadHQquJ/fsBwivveNrTsVRJmZ4yD8A8HbIQSoxOFEODyfPyJhK1duB0XRqq7eSlzIy8ubepbMj/CyOHARC0VZl38m5+lZ393UTiWk0stk5L7K/Pl4ufmVNPNzVfcHnR/YE7SoQycfr5CR/wdcAuvIwt8r779Z7Hvf95MSr74DhJnR0oACJvlHb+3omYsT5F8A6jVeh0g1gtffcZL01IQSE3V7ZvyxWNllIhkdDIeDQ49WsGe+kSmPd6unSlJEozUrLT0789nnlCkeS5Ikz5MXpok0FP7PYo4yf4jEdskmOLxWc8UDFKsas/C8oPe/ROP8pCFndY9GjP+YryOoOsJzB/XyhcJhxOgQrPfCBvLuJGxDBAStZ7UXe4HjMp14XHN1J6tbuGgZ1DodDAeFZAHPyuteCtcaX/LrDiVsjZ6fgc5NXes30Yy+DODfwHc6yC8Dw0vJhyWPexHMFBxVP1lDgy3v/DMZ4sZqI6NMDFSvnp+QsraDt9gk4H8CSC+cxifE36M/wl0t04LnJEgw36SYGsdz1Jk3Z/oMmQZ2DoqHPni3n73FDppNZ9WL5gpLfY1GalRSfJJO/7qfWkPRKPdfSgx56uS8ZBEJR93vu2wY9PNDxt7xtl+vkcNomWAhzT6wQZfIFRsBED+Qf0EE/5o2/5sCUFFf+S7hMLP/KCXCOwWIJHXgxAyXk4WsNvuNj1rjLk8qIB+MhsEp4FjtfrXaM18lkz1VotqLPJKe9sdRLSg+D2dSVLL7Aca+49ka8j15wP1wk2nto62FtY1BsOudfAhixOjqMaDkfN6T9JGw5cC1XbGm1TzkSuEMOX2/N5+9EXOo4f4lb0Icdp+jlUoqhXb5q+N/zdEoyLsuM2easdFWAuiKAv8n028m++xbm85c3erOcckbfLie51ycP87lYz/UA9rD58zl0dNLtDSQ9/P7h5PpaLGbP2P/Mr/bh7Js3Rw9vr5MijuZgpLTnDw93JxlB3LlN9+cPf5F3Lpc95O+bDxlBhixobd6nEB6vxGbt57U66RM3V3q+lthOb/+GbRmAlYTlC/D3NAj0pPT5bPAXIrA5CDhtuzebU0WUFBFYQqDtQFZm03ZqS97fxx4WsExsOApIE8+0TiwIDPe1zlIAAAU7SURBVLcVQQSeTWzxmBiRnJ553AfFbG6yTDJpO7WVk6HbDwhjhU04TSogDRMTBxMLYoDZSAlEiJjN4y4REyOSVzHuTg6G7Jb2x9ZTW3khOv1yoYcG9Aag9QpI41Cu9BMLYoI7EiAyvSCg6uLZmFMjsqxgnV7BtlNby0J0+R0HRPMv1vTSEF+wlk8sSCQiJyxw9ZpYEM3npnAdGqSpBVlWMD3rErV8cs3v+BvafGprTbaNTscyWDABMb00kSdswBMLEhfPQZxYEM3nnWeu9FML0kijqi9uPbVVnW2LswRWkp9emtDWudJPLAgUH7gW59GZWBAgaaNMh5U/9ckFaaFSZbe0ntoqy7BtusndayaXhsclciEmFgRWDwa+BgpudhMLAk9TGBkmR6StWhXeNz2oQiwYtPGltCeXxoMQRC7ExII4wlUcRrNTCwJOT5Q5wO1vToxIofK2TVRjaiuwYzamqaUJ7QC8NSmQhEw74+fEHWjLB6UXcUvNnUzaKsTSfWYsiW9NLciSXN1+qjA+CVLGm4ml4XYwsU08bCOJ0oOz6cSIyAaeTi1INy1furvj1NZSbu1++imvgQrSiOc8sSC+4ETg5sKJBUniNMBeObEg7TSr5K5uU1slmTZLdqig3GMw7aeANHE3emJBjHhKCKLlJxZE82xYso7PUE0tSDOdWnN1p6mtNXnXOx0kfQo+DTK9NMnYcWJBXI6JCo4ZJo/AEZJMjEg9Xap7VZeprbpl1L9OGWkmFsQ0JFHmxIJojpRkakHqKxFeiQggAogAIoAIIAKIACKACCACiAAigAggAogAIoAIIAKIACKACCACiAAigAggAogAIoAITIrAMrVLjuOFWcILBtiTLb58uZHQhoolziukBuqaeINr4gPOWNFHzhWF4ilEoCYCMdfNwt0t71wFq6nF+RiCHoQlnMrJTaVFAJlIvPFoLLEBpUcvOZcWiScQgboIxFw3C2qXJdYbWJkqXhIrsjkVTV2lT1p6Hi0QUAjJ4kxh/eRct154HSJQhkDCdbOgdlnieAGGexHUQajgX8oqfdxtqaJxDzkNl7xlUUQsS6ecy6qD6YjAegQSrptFRNxSjJ5lhaJ/Y9BguaWPuy1JJ7+oJF0shM48jQgKuh5zLioN0xCBeggkXDcLjplljhfL0gVVaBSJUELoy4uNN/v8gMcVlW6ReCEsH9bu9INFEcn1XXIuLRJPIALrEJBcN0nIlGZB5D/03DU4SG6FAws65oQaidLH7bsY1QIfUxU9XJKVz4k0PHhZ+st5XbXwPCJQjoDkuqlUeoMSiBIlidIvWnp4FQTxXVn2yYsj1sUCDrcCpW+bc1mJmI4IrEUg5boBpU84ZtKD5GbQXGjltSiK3ws5Ko1Nlp4vOuv8UlOsbQh/0sW+zeyq5hpQw8oiGuacXI47RKAXBLjhXGwZjpmV4Saw20Vc75OWPi5YKL2bWexTl4uSid4Rv8jNrYpnrbDH8A9BnZx7qSlmgghkEYi7HSm1S3oQX8NVE0g5oIezovShGOFms8odJ939hD0GLPa95ZwrBn8gAs0RiJU+pXZJD+KcuNITCqzKK0of0Ej070tKTNeH8Tl7DLf29JVzSYGYjAjURiBW+oWPwJKzADfjRLxNX27pZd+opCBGk3WjTLBYUrH+c085lxSIyYhAYwRSapf0oHEWJTc4ofRp67CCRknemIwIIAKIACKACCACiAAigAggAogAIoAIIAKIACKACCACiAAigAggAogAIoAIIAKIACKACCACiAAigAggAohAZwT+P+1MqZh7Mxm7AAAAAElFTkSuQmCC;" vertex="1" parent="1">
                    <mxGeometry x="617" y="80" width="120" height="108" as="geometry"/>
                </mxCell>
                <mxCell id="41" value="need a prior distribution" style="text;html=1;strokeColor=none;fillColor=none;align=left;verticalAlign=middle;whiteSpace=wrap;rounded=0;shadow=0;glass=0;dashed=1;dashPattern=12 12;sketch=0;fillStyle=auto;fontSize=12;fontColor=#000000;opacity=70;" vertex="1" parent="1">
                    <mxGeometry x="574" y="104" width="110" height="30" as="geometry"/>
                </mxCell>
                <mxCell id="42" value="" style="group" vertex="1" connectable="0" parent="1">
                    <mxGeometry x="137" y="271" width="547" height="190" as="geometry"/>
                </mxCell>
                <mxCell id="8" value="There are 171,476 words in Oxford&amp;nbsp; Englihs Dictionary&amp;nbsp;" style="text;html=1;strokeColor=none;fillColor=none;align=left;verticalAlign=middle;whiteSpace=wrap;rounded=0;fontColor=#1A1A1A;" parent="42" vertex="1">
                    <mxGeometry x="405.1492007104796" y="109.2970711297071" width="116.58969804618117" height="23.84937238493724" as="geometry"/>
                </mxCell>
                <mxCell id="9" value="" style="edgeStyle=none;html=1;fontColor=#1A1A1A;" parent="42" source="2" target="8" edge="1">
                    <mxGeometry relative="1" as="geometry"/>
                </mxCell>
                <mxCell id="10" value="" style="group" parent="42" vertex="1" connectable="0">
                    <mxGeometry x="84.52753108348135" y="46.90376569037657" width="320.62166962699825" height="143.0962343096234" as="geometry"/>
                </mxCell>
                <mxCell id="2" value="" style="ellipse;shape=cloud;whiteSpace=wrap;html=1;fillColor=#666666;strokeColor=#000000;fillStyle=dashed;opacity=70;" parent="10" vertex="1">
                    <mxGeometry width="320.62166962699825" height="143.0962343096234" as="geometry"/>
                </mxCell>
                <mxCell id="3" value="&lt;h1&gt;&lt;font style=&quot;font-size: 17px;&quot;&gt;All words&lt;/font&gt;&lt;/h1&gt;&lt;p&gt;&lt;font style=&quot;font-size: 13px;&quot;&gt;Lorem ipsum dolor sit amet, consectetur adipisicing elit, sed do eiusmod tempor incididunt&lt;/font&gt;&lt;/p&gt;" style="text;html=1;strokeColor=none;fillColor=none;spacing=5;spacingTop=-20;whiteSpace=wrap;overflow=hidden;rounded=0;fontColor=#1A1A1A;" parent="10" vertex="1">
                    <mxGeometry x="87" y="9" width="205" height="96.01" as="geometry"/>
                </mxCell>
                <mxCell id="11" value="" style="group" parent="42" vertex="1" connectable="0">
                    <mxGeometry width="106.87388987566608" height="34.979079497907954" as="geometry"/>
                </mxCell>
                <mxCell id="6" value="" style="rounded=1;whiteSpace=wrap;html=1;strokeColor=#000000;fontColor=#1A1A1A;fillColor=none;" parent="11" vertex="1">
                    <mxGeometry width="106.87388987566608" height="34.979079497907954" as="geometry"/>
                </mxCell>
                <mxCell id="7" value="&lt;font style=&quot;font-size: 15px;&quot;&gt;Topic -1&lt;/font&gt;" style="text;html=1;strokeColor=none;fillColor=none;align=center;verticalAlign=middle;whiteSpace=wrap;rounded=0;fontColor=#1A1A1A;fontSize=17;fontStyle=2" parent="11" vertex="1">
                    <mxGeometry x="7.772646536412078" y="5.564853556485357" width="87.44227353463587" height="23.84937238493724" as="geometry"/>
                </mxCell>
                <mxCell id="13" value="" style="group" parent="42" vertex="1" connectable="0">
                    <mxGeometry x="147.6802841918295" width="106.87388987566608" height="34.979079497907954" as="geometry"/>
                </mxCell>
                <mxCell id="14" value="" style="rounded=1;whiteSpace=wrap;html=1;strokeColor=#000000;fontColor=#1A1A1A;fillColor=none;" parent="13" vertex="1">
                    <mxGeometry width="106.87388987566608" height="34.979079497907954" as="geometry"/>
                </mxCell>
                <mxCell id="15" value="&lt;font style=&quot;font-size: 15px;&quot;&gt;Topic -2&lt;/font&gt;" style="text;html=1;strokeColor=none;fillColor=none;align=center;verticalAlign=middle;whiteSpace=wrap;rounded=0;fontColor=#1A1A1A;fontSize=17;fontStyle=2" parent="13" vertex="1">
                    <mxGeometry x="7.772646536412078" y="5.564853556485357" width="87.44227353463587" height="23.84937238493724" as="geometry"/>
                </mxCell>
                <mxCell id="16" value="" style="group" parent="42" vertex="1" connectable="0">
                    <mxGeometry x="294.38898756660745" width="106.87388987566608" height="34.979079497907954" as="geometry"/>
                </mxCell>
                <mxCell id="17" value="" style="rounded=1;whiteSpace=wrap;html=1;strokeColor=#000000;fontColor=#1A1A1A;fillColor=none;" parent="16" vertex="1">
                    <mxGeometry width="106.87388987566608" height="34.979079497907954" as="geometry"/>
                </mxCell>
                <mxCell id="18" value="&lt;font style=&quot;font-size: 15px;&quot;&gt;Topic ...&lt;/font&gt;" style="text;html=1;strokeColor=none;fillColor=none;align=center;verticalAlign=middle;whiteSpace=wrap;rounded=0;fontColor=#1A1A1A;fontSize=17;fontStyle=2" parent="16" vertex="1">
                    <mxGeometry x="7.772646536412078" y="5.564853556485357" width="87.44227353463587" height="23.84937238493724" as="geometry"/>
                </mxCell>
                <mxCell id="19" value="" style="group" parent="42" vertex="1" connectable="0">
                    <mxGeometry x="440.12611012433393" width="106.87388987566608" height="34.979079497907954" as="geometry"/>
                </mxCell>
                <mxCell id="20" value="" style="rounded=1;whiteSpace=wrap;html=1;strokeColor=#000000;fontColor=#1A1A1A;fillColor=none;" parent="19" vertex="1">
                    <mxGeometry x="-3.886323268206039" width="106.87388987566608" height="34.979079497907954" as="geometry"/>
                </mxCell>
                <mxCell id="21" value="&lt;font style=&quot;font-size: 15px;&quot;&gt;Topic - k&lt;/font&gt;" style="text;html=1;strokeColor=none;fillColor=none;align=center;verticalAlign=middle;whiteSpace=wrap;rounded=0;fontColor=#1A1A1A;fontSize=17;fontStyle=2" parent="19" vertex="1">
                    <mxGeometry x="7.772646536412078" y="5.564853556485357" width="87.44227353463587" height="23.84937238493724" as="geometry"/>
                </mxCell>
                <mxCell id="22" style="edgeStyle=orthogonalEdgeStyle;html=1;exitX=0.88;exitY=0.25;exitDx=0;exitDy=0;exitPerimeter=0;fontSize=17;fontColor=#1A1A1A;curved=1;strokeColor=#1A1A1A;" parent="42" source="2" edge="1">
                    <mxGeometry relative="1" as="geometry">
                        <mxPoint x="482.87566607460036" y="39.7489539748954" as="targetPoint"/>
                    </mxGeometry>
                </mxCell>
                <mxCell id="23" style="edgeStyle=orthogonalEdgeStyle;curved=1;html=1;entryX=0.373;entryY=1.08;entryDx=0;entryDy=0;entryPerimeter=0;strokeColor=#1A1A1A;fontSize=17;fontColor=#1A1A1A;" parent="42" target="17" edge="1">
                    <mxGeometry relative="1" as="geometry">
                        <mxPoint x="309.9342806394316" y="71.5481171548117" as="sourcePoint"/>
                    </mxGeometry>
                </mxCell>
                <mxCell id="26" style="edgeStyle=orthogonalEdgeStyle;curved=1;html=1;exitX=0.07;exitY=0.4;exitDx=0;exitDy=0;exitPerimeter=0;strokeColor=#1A1A1A;fontSize=17;fontColor=#1A1A1A;" parent="42" source="2" edge="1">
                    <mxGeometry relative="1" as="geometry">
                        <mxPoint x="45.66429840142096" y="39.7489539748954" as="targetPoint"/>
                    </mxGeometry>
                </mxCell>
                <mxCell id="28" style="edgeStyle=orthogonalEdgeStyle;curved=1;html=1;exitX=0.4;exitY=0.1;exitDx=0;exitDy=0;exitPerimeter=0;strokeColor=#1A1A1A;fontSize=17;fontColor=#1A1A1A;" parent="42" source="2" edge="1">
                    <mxGeometry relative="1" as="geometry">
                        <mxPoint x="212.77619893428064" y="39.7489539748954" as="targetPoint"/>
                    </mxGeometry>
                </mxCell>
            </root>
        </mxGraphModel>
    </diagram>
</mxfile>